PathFileType	4	(X/Y/Z)	c:/Users/goper/Files/vsCode/490R/osim_files/A06/A06_SSWS_04.trc
DataRate	CameraRate	NumFrames	NumMarkers	Units                	OrigDataRate	OrigDataStartFrame	OrigNumFrames
120.00	120.00	6	36	mm	120.0	654	1307
                Frame#	Time	LPSIS			LASIS			LTH1			LTH2			LTH3			LTH4			LLFE			LMFE			LSH1			LSH2			LSH3			LSH4			LLMAL			LMMAL			LCAL			LMTP5			LTOE			LMTP1			RPSIS			RASIS			RTH1			RTH2			RTH3			RTH4			RLFE			RMFE			RSH1			RSH2			RSH3			RSH4			RLMAL			RMMAL			RCAL			RMTP1			RTOE			RMTP5		
		X1	Y1	Z1	X2	Y2	Z2	X3	Y3	Z3	X4	Y4	Z4	X5	Y5	Z5	X6	Y6	Z6	X7	Y7	Z7	X8	Y8	Z8	X9	Y9	Z9	X10	Y10	Z10	X11	Y11	Z11	X12	Y12	Z12	X13	Y13	Z13	X14	Y14	Z14	X15	Y15	Z15	X16	Y16	Z16	X17	Y17	Z17	X18	Y18	Z18	X19	Y19	Z19	X20	Y20	Z20	X21	Y21	Z21	X22	Y22	Z22	X23	Y23	Z23	X24	Y24	Z24	X25	Y25	Z25	X26	Y26	Z26	X27	Y27	Z27	X28	Y28	Z28	X29	Y29	Z29	X30	Y30	Z30	X31	Y31	Z31	X32	Y32	Z32	X33	Y33	Z33	X34	Y34	Z34	X35	Y35	Z35	X36	Y36	Z36

654	5.44167	-1430.83496	968.24701	351.20844	-1621.28516	914.95410	411.38156	-1642.16321	560.31354	450.46869	-1667.19861	524.92096	441.01840	-1700.84009	587.13440	437.90640	-1713.07214	546.40778	433.12335	-1719.62158	473.50098	426.15262	-1712.82910	468.17786	316.44101	-1704.28345	369.88092	440.22339	-1730.03748	332.09564	446.20334	-1758.97595	397.89609	433.07089	-1776.83728	359.43893	439.10852	-1849.66138	102.94028	407.64587	-1862.68787	123.63649	324.92212	-1798.01001	64.23748	354.57321	-1975.05359	108.80670	425.43430	-1998.07251	150.33192	372.98535	-1984.82568	132.72781	333.96033	-1427.99939	991.43085	219.87587	-1602.05750	948.19348	154.57849	-1408.28210	592.77966	122.42512	-1399.34021	551.24225	122.08654	-1467.83472	573.69861	128.69257	-1450.26160	533.18427	126.21106	-1384.01611	436.13824	148.97278	-1390.43970	436.54193	238.48036	-1312.95203	295.68588	166.75977	-1297.45886	250.78732	169.55884	-1369.41980	273.12686	175.91112	-1346.31238	230.27667	173.48203	-1238.80164	111.28346	165.44615	-1254.94849	114.46035	247.36328	-1181.43835	96.77496	215.23424	-1380.31592	52.01338	236.28064	-1396.62903	61.79805	194.55721	-1365.20410	50.28104	148.95657
655	5.45000	-1442.23169	965.87305	352.03738	-1632.66504	912.80176	411.75449	-1656.43982	559.59631	450.81705	-1681.63879	524.24158	441.20758	-1714.78296	586.73187	437.14188	-1727.21570	545.96106	432.32779	-1733.58228	472.73975	425.58057	-1725.93469	466.82785	316.20038	-1716.36902	368.27240	440.38184	-1741.31616	329.92834	446.19839	-1771.18054	395.37372	432.40872	-1788.24890	356.38416	438.51572	-1853.66370	99.67482	407.17599	-1867.79504	119.18810	324.26566	-1801.15771	64.31527	353.86606	-1979.72046	100.16834	424.77023	-2004.30005	140.42696	372.17325	-1990.52820	123.40054	333.17517	-1439.09644	989.67786	220.67702	-1614.30127	947.63147	155.00229	-1417.40625	592.23334	122.16316	-1407.61658	550.55750	121.92753	-1476.39685	572.09412	128.56479	-1458.26636	531.79608	126.06775	-1390.66699	435.64975	148.79562	-1396.76440	436.09384	238.32600	-1317.32507	296.33768	166.59868	-1301.46985	251.95879	169.28670	-1373.37524	273.09683	175.77271	-1349.55627	230.54890	173.37112	-1239.77136	112.34551	165.23634	-1255.60962	115.60593	247.30835	-1182.20752	98.39671	214.97736	-1380.62781	51.93252	236.29729	-1397.09241	61.56908	194.53204	-1365.66772	50.26086	148.93582
656	5.45833	-1453.59265	963.65082	352.52896	-1644.13489	910.59399	412.36365	-1671.59644	558.54840	449.90604	-1694.99585	524.11005	442.51443	-1729.06299	586.15259	436.04404	-1741.53271	545.52338	431.24854	-1747.81079	472.07556	424.49207	-1739.24414	465.37189	315.69559	-1728.91565	366.76944	441.61038	-1752.53772	327.95959	446.48932	-1783.79065	392.54861	431.47049	-1799.97461	353.49887	437.36487	-1857.68640	96.07265	406.52042	-1872.55505	114.73722	323.49158	-1804.47314	64.60751	353.32245	-1984.01172	91.39391	424.24857	-2009.62537	130.73813	371.32437	-1994.33325	113.78515	331.26273	-1450.41150	988.00610	221.30463	-1625.54126	946.48273	155.46298	-1426.37878	591.44476	122.09094	-1416.04114	549.95398	121.80667	-1485.24475	570.66003	128.75475	-1466.53125	530.55920	126.32988	-1397.18433	435.33392	148.79485	-1403.29773	435.68185	238.27779	-1321.79041	297.15512	166.46341	-1304.87268	252.81615	169.21758	-1377.45007	273.06577	175.65018	-1353.06506	230.85550	173.34805	-1240.84314	113.54371	165.06148	-1256.56580	116.69063	247.17792	-1183.10669	100.15909	214.70828	-1380.98718	51.90477	236.30714	-1397.60193	61.33686	194.49985	-1366.44666	50.20824	149.60413
657	5.46667	-1465.15955	961.57599	352.95999	-1655.60632	908.37622	413.15314	-1685.94958	557.93561	449.38477	-1709.20325	523.47522	441.87897	-1743.75867	585.78345	434.31223	-1755.44226	545.01654	429.93481	-1761.98975	471.29642	422.96805	-1752.44946	463.80383	315.22824	-1740.39941	365.68921	441.29837	-1763.39136	326.33853	446.03418	-1795.88831	390.54898	430.35831	-1810.84912	350.42828	435.43002	-1862.76343	93.68036	405.79376	-1877.97839	110.94273	322.55624	-1808.64331	65.48874	352.99423	-1988.63196	84.27206	423.27023	-2015.27063	122.54207	370.19043	-1999.81177	105.60238	330.44135	-1461.97192	986.32892	221.61224	-1637.31433	945.32422	156.17989	-1435.65808	590.66211	122.19283	-1424.53101	549.36987	121.88200	-1493.99658	568.95166	128.80807	-1474.62268	529.11377	126.33839	-1404.09473	434.90372	148.76328	-1410.10950	435.25381	238.33647	-1326.40527	298.01443	166.45535	-1308.74902	253.98193	169.21121	-1381.32263	273.03366	175.74225	-1356.61926	231.23383	173.35191	-1241.89294	115.02528	164.94968	-1257.75903	117.87343	247.23256	-1184.03198	102.16089	214.62715	-1381.51428	51.86396	236.31732	-1398.22021	61.12583	194.44307	-1367.00952	50.45326	149.57982
658	5.47500	-1476.63513	959.67200	353.21777	-1667.09497	906.29602	414.16293	-1699.44153	557.38049	448.49893	-1722.30725	522.44556	440.82959	-1757.28235	585.05951	432.75531	-1768.83643	544.19580	428.16644	-1775.47595	470.28711	421.21869	-1765.16577	462.44473	314.90451	-1751.92090	364.31216	440.94348	-1774.45447	324.42026	445.91919	-1807.39172	388.40445	428.88135	-1822.24097	348.11993	432.83762	-1868.67822	91.57852	405.00052	-1884.05408	107.66222	321.44290	-1813.12280	66.73502	352.57944	-1993.45996	76.75262	421.81332	-2021.70276	113.99062	368.89813	-2005.49890	97.03268	328.96091	-1473.57190	984.79724	221.71779	-1649.31897	944.17065	157.15685	-1444.84888	589.81525	122.34464	-1433.14294	548.65698	122.09377	-1502.79333	567.32257	129.01790	-1482.88953	527.81451	126.52111	-1411.13782	434.62357	149.27272	-1416.89270	434.80740	238.50911	-1331.04907	298.92993	166.58327	-1312.77393	255.22290	169.28212	-1385.92847	273.05682	175.85042	-1360.12476	231.69833	173.43266	-1243.18164	116.50362	165.04854	-1259.02722	119.23203	247.33472	-1185.23474	104.44729	214.69243	-1382.07166	51.79087	236.38269	-1397.44421	59.82679	195.71605	-1367.55273	50.80219	149.57050
659	5.48333	-1488.07312	958.02814	353.31625	-1678.50281	904.23798	415.23294	-1712.45642	557.10071	447.42850	-1734.99902	522.27411	439.37527	-1770.31860	584.32233	431.07831	-1781.44434	543.45984	426.44632	-1787.77307	469.41818	420.13885	-1776.88782	461.88281	314.68408	-1763.20483	363.45590	440.21637	-1785.46143	323.35739	444.98618	-1818.89807	387.17770	427.54871	-1833.12231	346.48398	431.37872	-1874.29724	89.72765	404.20648	-1889.91943	104.56770	320.42014	-1817.38867	68.10313	352.25763	-1997.85498	68.90166	420.09164	-2028.06787	104.25848	366.97275	-2010.89014	87.72758	326.96582	-1485.22925	983.32764	221.70059	-1661.52881	943.25525	158.25304	-1454.12793	589.04816	122.75726	-1441.77905	548.08795	122.43119	-1511.84180	565.71167	129.29231	-1491.26379	526.47559	126.82025	-1418.11475	434.35278	149.53072	-1423.90515	434.41278	238.75476	-1335.86572	299.89847	166.81332	-1316.81580	256.50452	169.48465	-1390.24768	273.25168	176.04713	-1363.96069	232.25795	173.59351	-1244.41602	118.11640	165.31732	-1260.64685	120.87184	247.58037	-1186.69238	107.15968	214.83690	-1382.18262	51.61813	236.81117	-1398.00281	59.61657	195.76814	-1368.24976	51.28118	149.60274
